<svg xmlns="http://www.w3.org/2000/svg" xmlns:xlink="http://www.w3.org/1999/xlink"
	viewBox="0 0 300 200" width="449" height="299" preserveAspectRatio="xMidYMid meet"
	style="width: 100%; height: 100%; transform: translate3d(0px, 0px, 0px); background-color: transparent;">
	<defs>
		<clipPath id="__lottie_element_2">
			<rect width="300" height="200" x="0" y="0" />
		</clipPath>
		<clipPath id="__lottie_element_4">
			<path d="M0,0 L3840,0 L3840,2160 L0,2160z" />
		</clipPath>
	</defs>
	<g clip-path="url(#__lottie_element_2)">
		<g clip-path="url(#__lottie_element_4)"
			transform="matrix(0.1811549961566925,0,0,0.1811549961566925,-186.13108825683594,-36.59528350830078)"
			opacity="1" style="display: block;">
			<g transform="matrix(1,0,0,1,1559.822998046875,843.718994140625)" opacity="1"
				style="display: block;">
				<g opacity="1" transform="matrix(1,0,0,1,532.6099853515625,303.22698974609375)">
					<path fill="rgb(218,218,70)" fill-opacity="1"
						d=" M-37.82099914550781,42.720001220703125 C-37.82099914550781,42.720001220703125 37.82099914550781,42.720001220703125 37.82099914550781,42.720001220703125 C37.82099914550781,42.720001220703125 37.82099914550781,-42.720001220703125 37.82099914550781,-42.720001220703125 C37.82099914550781,-42.720001220703125 -37.82099914550781,-42.720001220703125 -37.82099914550781,-42.720001220703125 C-37.82099914550781,-42.720001220703125 -37.82099914550781,42.720001220703125 -37.82099914550781,42.720001220703125z" />
				</g>
				<g opacity="1" transform="matrix(1,0,0,1,962.280029296875,262.3590087890625)">
					<path fill="rgb(218,218,70)" fill-opacity="1"
						d=" M52.939998626708984,137.02499389648438 C52.939998626708984,137.02499389648438 -52.939998626708984,137.02499389648438 -52.939998626708984,137.02499389648438 C-52.939998626708984,137.02499389648438 -52.939998626708984,-84.08499908447266 -52.939998626708984,-84.08499908447266 C-52.939998626708984,-113.3239974975586 -29.238000869750977,-137.02499389648438 0,-137.02499389648438 C29.238000869750977,-137.02499389648438 52.939998626708984,-113.3239974975586 52.939998626708984,-84.08499908447266 C52.939998626708984,-84.08499908447266 52.939998626708984,137.02499389648438 52.939998626708984,137.02499389648438z" />
				</g>
				<g opacity="1" transform="matrix(1,0,0,1,102.94000244140625,262.3590087890625)">
					<path fill="rgb(218,218,70)" fill-opacity="1"
						d=" M52.939998626708984,137.02499389648438 C52.939998626708984,137.02499389648438 -52.939998626708984,137.02499389648438 -52.939998626708984,137.02499389648438 C-52.939998626708984,137.02499389648438 -52.939998626708984,-84.08499908447266 -52.939998626708984,-84.08499908447266 C-52.939998626708984,-113.3239974975586 -29.238000869750977,-137.02499389648438 0,-137.02499389648438 C29.238000869750977,-137.02499389648438 52.939998626708984,-113.3239974975586 52.939998626708984,-84.08499908447266 C52.939998626708984,-84.08499908447266 52.939998626708984,137.02499389648438 52.939998626708984,137.02499389648438z" />
				</g>
				<g opacity="1" transform="matrix(1,0,0,1,962.280029296875,262.3590087890625)">
					<path stroke-linecap="round" stroke-linejoin="round" fill-opacity="0"
						stroke="rgb(255,255,255)" stroke-opacity="1" stroke-width="20"
						d=" M52.939998626708984,137.02499389648438 C52.939998626708984,137.02499389648438 -52.939998626708984,137.02499389648438 -52.939998626708984,137.02499389648438 C-52.939998626708984,137.02499389648438 -52.939998626708984,-84.08499908447266 -52.939998626708984,-84.08499908447266 C-52.939998626708984,-113.3239974975586 -29.238000869750977,-137.02499389648438 0,-137.02499389648438 C29.238000869750977,-137.02499389648438 52.939998626708984,-113.3239974975586 52.939998626708984,-84.08499908447266 C52.939998626708984,-84.08499908447266 52.939998626708984,137.02499389648438 52.939998626708984,137.02499389648438z" />
				</g>
				<g opacity="1" transform="matrix(1,0,0,1,344.2449951171875,155.25399780273438)">
					<path fill="rgb(218,218,70)" fill-opacity="1"
						d=" M188.36500549316406,105.25299835205078 C188.36500549316406,105.25299835205078 -188.36500549316406,105.25299835205078 -188.36500549316406,105.25299835205078 C-188.36500549316406,105.25299835205078 -188.36500549316406,-35.83599853515625 -188.36500549316406,-35.83599853515625 C-188.36500549316406,-74.17400360107422 -157.28599548339844,-105.25299835205078 -118.947998046875,-105.25299835205078 C-118.947998046875,-105.25299835205078 118.947998046875,-105.25299835205078 118.947998046875,-105.25299835205078 C157.28599548339844,-105.25299835205078 188.36500549316406,-74.17400360107422 188.36500549316406,-35.83599853515625 C188.36500549316406,-35.83599853515625 188.36500549316406,105.25299835205078 188.36500549316406,105.25299835205078z" />
				</g>
				<g opacity="1" transform="matrix(1,0,0,1,344.2449951171875,81.64900207519531)">
					<path fill="rgb(218,218,70)" fill-opacity="1"
						d=" M-188.06300354003906,31.648000717163086 C-188.06300354003906,31.648000717163086 188.06300354003906,31.648000717163086 188.06300354003906,31.648000717163086 C184.968994140625,-3.871999979019165 157.81100463867188,-31.648000717163086 124.75599670410156,-31.648000717163086 C124.75599670410156,-31.648000717163086 -124.75700378417969,-31.648000717163086 -124.75700378417969,-31.648000717163086 C-157.81199645996094,-31.648000717163086 -184.968994140625,-3.871999979019165 -188.06300354003906,31.648000717163086z" />
				</g>
				<g opacity="1" transform="matrix(1,0,0,1,102.94000244140625,262.3590087890625)">
					<path stroke-linecap="round" stroke-linejoin="round" fill-opacity="0"
						stroke="rgb(255,255,255)" stroke-opacity="1" stroke-width="20"
						d=" M52.939998626708984,137.02499389648438 C52.939998626708984,137.02499389648438 -52.939998626708984,137.02499389648438 -52.939998626708984,137.02499389648438 C-52.939998626708984,137.02499389648438 -52.939998626708984,-84.08499908447266 -52.939998626708984,-84.08499908447266 C-52.939998626708984,-113.3239974975586 -29.238000869750977,-137.02499389648438 0,-137.02499389648438 C29.238000869750977,-137.02499389648438 52.939998626708984,-113.3239974975586 52.939998626708984,-84.08499908447266 C52.939998626708984,-84.08499908447266 52.939998626708984,137.02499389648438 52.939998626708984,137.02499389648438z" />
				</g>
				<g opacity="1" transform="matrix(1,0,0,1,720.9749755859375,155.25399780273438)">
					<path fill="rgb(218,218,70)" fill-opacity="1"
						d=" M188.36500549316406,105.25299835205078 C188.36500549316406,105.25299835205078 -188.36500549316406,105.25299835205078 -188.36500549316406,105.25299835205078 C-188.36500549316406,105.25299835205078 -188.36500549316406,-35.83599853515625 -188.36500549316406,-35.83599853515625 C-188.36500549316406,-74.17400360107422 -157.28599548339844,-105.25299835205078 -118.947998046875,-105.25299835205078 C-118.947998046875,-105.25299835205078 118.947998046875,-105.25299835205078 118.947998046875,-105.25299835205078 C157.28599548339844,-105.25299835205078 188.36500549316406,-74.17400360107422 188.36500549316406,-35.83599853515625 C188.36500549316406,-35.83599853515625 188.36500549316406,105.25299835205078 188.36500549316406,105.25299835205078z" />
				</g>
				<g opacity="1" transform="matrix(1,0,0,1,720.9749755859375,81.64900207519531)">
					<path fill="rgb(218,218,70)" fill-opacity="1"
						d=" M-188.06300354003906,31.648000717163086 C-188.06300354003906,31.648000717163086 188.06300354003906,31.648000717163086 188.06300354003906,31.648000717163086 C184.968994140625,-3.871999979019165 157.81100463867188,-31.648000717163086 124.75599670410156,-31.648000717163086 C124.75599670410156,-31.648000717163086 -124.75700378417969,-31.648000717163086 -124.75700378417969,-31.648000717163086 C-157.81199645996094,-31.648000717163086 -184.968994140625,-3.871999979019165 -188.06300354003906,31.648000717163086z" />
				</g>
				<g opacity="1" transform="matrix(1,0,0,1,344.2449951171875,155.25399780273438)">
					<path stroke-linecap="round" stroke-linejoin="round" fill-opacity="0"
						stroke="rgb(255,255,255)" stroke-opacity="1" stroke-width="20"
						d=" M188.36500549316406,105.25299835205078 C188.36500549316406,105.25299835205078 -188.36500549316406,105.25299835205078 -188.36500549316406,105.25299835205078 C-188.36500549316406,105.25299835205078 -188.36500549316406,-35.83599853515625 -188.36500549316406,-35.83599853515625 C-188.36500549316406,-74.17400360107422 -157.28599548339844,-105.25299835205078 -118.947998046875,-105.25299835205078 C-118.947998046875,-105.25299835205078 118.947998046875,-105.25299835205078 118.947998046875,-105.25299835205078 C157.28599548339844,-105.25299835205078 188.36500549316406,-74.17400360107422 188.36500549316406,-35.83599853515625 C188.36500549316406,-35.83599853515625 188.36500549316406,105.25299835205078 188.36500549316406,105.25299835205078z" />
				</g>
				<g opacity="1" transform="matrix(1,0,0,1,720.9749755859375,155.25399780273438)">
					<path stroke-linecap="round" stroke-linejoin="round" fill-opacity="0"
						stroke="rgb(255,255,255)" stroke-opacity="1" stroke-width="20"
						d=" M188.36500549316406,105.25299835205078 C188.36500549316406,105.25299835205078 -188.36500549316406,105.25299835205078 -188.36500549316406,105.25299835205078 C-188.36500549316406,105.25299835205078 -188.36500549316406,-35.83599853515625 -188.36500549316406,-35.83599853515625 C-188.36500549316406,-74.17400360107422 -157.28599548339844,-105.25299835205078 -118.947998046875,-105.25299835205078 C-118.947998046875,-105.25299835205078 118.947998046875,-105.25299835205078 118.947998046875,-105.25299835205078 C157.28599548339844,-105.25299835205078 188.36500549316406,-74.17400360107422 188.36500549316406,-35.83599853515625 C188.36500549316406,-35.83599853515625 188.36500549316406,105.25299835205078 188.36500549316406,105.25299835205078z" />
				</g>
				<g opacity="1" transform="matrix(1,0,0,1,532.6099853515625,303.22698974609375)">
					<path stroke-linecap="round" stroke-linejoin="round" fill-opacity="0"
						stroke="rgb(255,255,255)" stroke-opacity="1" stroke-width="20"
						d=" M376.7300109863281,42.720001220703125 C376.7300109863281,42.720001220703125 -376.7300109863281,42.720001220703125 -376.7300109863281,42.720001220703125 C-376.7300109863281,42.720001220703125 -376.7300109863281,-42.720001220703125 -376.7300109863281,-42.720001220703125 C-376.7300109863281,-42.720001220703125 376.7300109863281,-42.720001220703125 376.7300109863281,-42.720001220703125 C376.7300109863281,-42.720001220703125 376.7300109863281,42.720001220703125 376.7300109863281,42.720001220703125z" />
				</g>
				<g opacity="1" transform="matrix(1,0,0,1,532.6099853515625,372.6650085449219)">
					<path stroke-linecap="round" stroke-linejoin="round" fill-opacity="0"
						stroke="rgb(255,255,255)" stroke-opacity="1" stroke-width="20"
						d=" M376.7300109863281,-26.7189998626709 C376.7300109863281,-26.7189998626709 -376.7300109863281,-26.7189998626709 -376.7300109863281,-26.7189998626709 C-376.7300109863281,-26.7189998626709 -376.7300109863281,26.7189998626709 -376.7300109863281,26.7189998626709 C-376.7300109863281,26.7189998626709 376.7300109863281,26.7189998626709 376.7300109863281,26.7189998626709 C376.7300109863281,26.7189998626709 376.7300109863281,-26.7189998626709 376.7300109863281,-26.7189998626709z" />
				</g>
				<g opacity="1" transform="matrix(1,0,0,1,532.6099853515625,303.22698974609375)">
					<path fill="rgb(218,218,70)" fill-opacity="1"
						d=" M376.7300109863281,42.720001220703125 C376.7300109863281,42.720001220703125 -376.7300109863281,42.720001220703125 -376.7300109863281,42.720001220703125 C-376.7300109863281,42.720001220703125 -376.7300109863281,-42.720001220703125 -376.7300109863281,-42.720001220703125 C-376.7300109863281,-42.720001220703125 376.7300109863281,-42.720001220703125 376.7300109863281,-42.720001220703125 C376.7300109863281,-42.720001220703125 376.7300109863281,42.720001220703125 376.7300109863281,42.720001220703125z" />
				</g>
				<g opacity="1" transform="matrix(1,0,0,1,532.6099853515625,372.6650085449219)">
					<path fill="rgb(218,218,70)" fill-opacity="1"
						d=" M376.7300109863281,-26.7189998626709 C376.7300109863281,-26.7189998626709 -376.7300109863281,-26.7189998626709 -376.7300109863281,-26.7189998626709 C-376.7300109863281,-26.7189998626709 -376.7300109863281,26.7189998626709 -376.7300109863281,26.7189998626709 C-376.7300109863281,26.7189998626709 376.7300109863281,26.7189998626709 376.7300109863281,26.7189998626709 C376.7300109863281,26.7189998626709 376.7300109863281,-26.7189998626709 376.7300109863281,-26.7189998626709z" />
				</g>
				<g opacity="1" transform="matrix(1,0,0,1,532.6099853515625,359.3059997558594)">
					<path fill="rgb(218,218,70)" fill-opacity="1"
						d=" M376.7300109863281,-13.359000205993652 C376.7300109863281,-13.359000205993652 -376.7300109863281,-13.359000205993652 -376.7300109863281,-13.359000205993652 C-376.7300109863281,-13.359000205993652 -376.7300109863281,13.359000205993652 -376.7300109863281,13.359000205993652 C-376.7300109863281,13.359000205993652 376.7300109863281,13.359000205993652 376.7300109863281,13.359000205993652 C376.7300109863281,13.359000205993652 376.7300109863281,-13.359000205993652 376.7300109863281,-13.359000205993652z" />
				</g>
				<g opacity="1" transform="matrix(1,0,0,1,532.6099853515625,303.22698974609375)">
					<path stroke-linecap="round" stroke-linejoin="round" fill-opacity="0"
						stroke="rgb(255,255,255)" stroke-opacity="1" stroke-width="20"
						d=" M376.7300109863281,42.720001220703125 C376.7300109863281,42.720001220703125 -376.7300109863281,42.720001220703125 -376.7300109863281,42.720001220703125 C-376.7300109863281,42.720001220703125 -376.7300109863281,-42.720001220703125 -376.7300109863281,-42.720001220703125 C-376.7300109863281,-42.720001220703125 376.7300109863281,-42.720001220703125 376.7300109863281,-42.720001220703125 C376.7300109863281,-42.720001220703125 376.7300109863281,42.720001220703125 376.7300109863281,42.720001220703125z" />
				</g>
				<g opacity="1" transform="matrix(1,0,0,1,532.6099853515625,372.6650085449219)">
					<path stroke-linecap="round" stroke-linejoin="round" fill-opacity="0"
						stroke="rgb(255,255,255)" stroke-opacity="1" stroke-width="20"
						d=" M376.7300109863281,-26.7189998626709 C376.7300109863281,-26.7189998626709 -376.7300109863281,-26.7189998626709 -376.7300109863281,-26.7189998626709 C-376.7300109863281,-26.7189998626709 -376.7300109863281,26.7189998626709 -376.7300109863281,26.7189998626709 C-376.7300109863281,26.7189998626709 376.7300109863281,26.7189998626709 376.7300109863281,26.7189998626709 C376.7300109863281,26.7189998626709 376.7300109863281,-26.7189998626709 376.7300109863281,-26.7189998626709z" />
				</g>
				<g opacity="1" transform="matrix(1,0,0,1,0,0)">
					<path stroke-linecap="round" stroke-linejoin="round" fill-opacity="0"
						stroke="rgb(255,255,255)" stroke-opacity="1" stroke-width="20"
						d=" M532.6099853515625,260.5069885253906 C532.6099853515625,260.5069885253906 532.6099853515625,345.9469909667969 532.6099853515625,345.9469909667969" />
				</g>
				<g opacity="1" transform="matrix(1,0,0,1,209.84100341796875,427.2439880371094)">
					<path fill="rgb(255,255,255)" fill-opacity="1"
						d=" M27.11199951171875,24.075000762939453 C27.11199951171875,24.075000762939453 -27.11199951171875,24.075000762939453 -27.11199951171875,24.075000762939453 C-27.11199951171875,24.075000762939453 -27.11199951171875,-24.075000762939453 -27.11199951171875,-24.075000762939453 C-27.11199951171875,-24.075000762939453 27.11199951171875,-24.075000762939453 27.11199951171875,-24.075000762939453 C27.11199951171875,-24.075000762939453 27.11199951171875,24.075000762939453 27.11199951171875,24.075000762939453z" />
					<path stroke-linecap="round" stroke-linejoin="round" fill-opacity="0"
						stroke="rgb(255,255,255)" stroke-opacity="1" stroke-width="20"
						d=" M27.11199951171875,24.075000762939453 C27.11199951171875,24.075000762939453 -27.11199951171875,24.075000762939453 -27.11199951171875,24.075000762939453 C-27.11199951171875,24.075000762939453 -27.11199951171875,-24.075000762939453 -27.11199951171875,-24.075000762939453 C-27.11199951171875,-24.075000762939453 27.11199951171875,-24.075000762939453 27.11199951171875,-24.075000762939453 C27.11199951171875,-24.075000762939453 27.11199951171875,24.075000762939453 27.11199951171875,24.075000762939453z" />
				</g>
				<g opacity="1" transform="matrix(1,0,0,1,855.3790283203125,427.2439880371094)">
					<path fill="rgb(255,255,255)" fill-opacity="1"
						d=" M27.11199951171875,24.075000762939453 C27.11199951171875,24.075000762939453 -27.11199951171875,24.075000762939453 -27.11199951171875,24.075000762939453 C-27.11199951171875,24.075000762939453 -27.11199951171875,-24.075000762939453 -27.11199951171875,-24.075000762939453 C-27.11199951171875,-24.075000762939453 27.11199951171875,-24.075000762939453 27.11199951171875,-24.075000762939453 C27.11199951171875,-24.075000762939453 27.11199951171875,24.075000762939453 27.11199951171875,24.075000762939453z" />
					<path stroke-linecap="round" stroke-linejoin="round" fill-opacity="0"
						stroke="rgb(255,255,255)" stroke-opacity="1" stroke-width="20"
						d=" M27.11199951171875,24.075000762939453 C27.11199951171875,24.075000762939453 -27.11199951171875,24.075000762939453 -27.11199951171875,24.075000762939453 C-27.11199951171875,24.075000762939453 -27.11199951171875,-24.075000762939453 -27.11199951171875,-24.075000762939453 C-27.11199951171875,-24.075000762939453 27.11199951171875,-24.075000762939453 27.11199951171875,-24.075000762939453 C27.11199951171875,-24.075000762939453 27.11199951171875,24.075000762939453 27.11199951171875,24.075000762939453z" />
				</g>
			</g>
			<g transform="matrix(1,0,0,1,1117.81298828125,900.280029296875)" opacity="1"
				style="display: block;">
				<g opacity="1" transform="matrix(1,0,0,1,197.58200073242188,258.2720031738281)">
					<path fill="rgb(218,218,70)" fill-opacity="1"
						d=" M183.44000244140625,82.052001953125 C183.44000244140625,82.052001953125 -183.44000244140625,82.052001953125 -183.44000244140625,82.052001953125 C-183.44000244140625,82.052001953125 -183.44000244140625,-82.052001953125 -183.44000244140625,-82.052001953125 C-183.44000244140625,-82.052001953125 183.44000244140625,-82.052001953125 183.44000244140625,-82.052001953125 C183.44000244140625,-82.052001953125 183.44000244140625,82.052001953125 183.44000244140625,82.052001953125z" />
				</g>
				<g opacity="1" transform="matrix(1,0,0,1,197.58200073242188,188.83299255371094)">
					<path fill="rgb(218,218,70)" fill-opacity="1"
						d=" M-183.44000244140625,12.61299991607666 C-183.44000244140625,12.61299991607666 183.44000244140625,12.61299991607666 183.44000244140625,12.61299991607666 C183.44000244140625,12.61299991607666 183.44000244140625,-12.61299991607666 183.44000244140625,-12.61299991607666 C183.44000244140625,-12.61299991607666 -183.44000244140625,-12.61299991607666 -183.44000244140625,-12.61299991607666 C-183.44000244140625,-12.61299991607666 -183.44000244140625,12.61299991607666 -183.44000244140625,12.61299991607666z" />
				</g>
				<g opacity="1" transform="matrix(1,0,0,1,191.16200256347656,326.2179870605469)">
					<path fill="rgb(218,218,70)" fill-opacity="1"
						d=" M-183.44000244140625,12.61299991607666 C-183.44000244140625,12.61299991607666 183.44000244140625,12.61299991607666 183.44000244140625,12.61299991607666 C183.44000244140625,12.61299991607666 183.44000244140625,-12.61299991607666 183.44000244140625,-12.61299991607666 C183.44000244140625,-12.61299991607666 -183.44000244140625,-12.61299991607666 -183.44000244140625,-12.61299991607666 C-183.44000244140625,-12.61299991607666 -183.44000244140625,12.61299991607666 -183.44000244140625,12.61299991607666z" />
				</g>
				<g opacity="1" transform="matrix(1,0,0,1,197.58200073242188,96.19400024414062)">
					<path fill="rgb(218,218,70)" fill-opacity="1"
						d=" M183.44000244140625,82.052001953125 C183.44000244140625,82.052001953125 -183.44000244140625,82.052001953125 -183.44000244140625,82.052001953125 C-183.44000244140625,82.052001953125 -183.44000244140625,-82.052001953125 -183.44000244140625,-82.052001953125 C-183.44000244140625,-82.052001953125 183.44000244140625,-82.052001953125 183.44000244140625,-82.052001953125 C183.44000244140625,-82.052001953125 183.44000244140625,82.052001953125 183.44000244140625,82.052001953125z" />
				</g>
				<g opacity="1" transform="matrix(1,0,0,1,197.58200073242188,258.2720031738281)">
					<path stroke-linecap="round" stroke-linejoin="round" fill-opacity="0"
						stroke="rgb(255,255,255)" stroke-opacity="1" stroke-width="20"
						d=" M183.44000244140625,82.052001953125 C183.44000244140625,82.052001953125 -183.44000244140625,82.052001953125 -183.44000244140625,82.052001953125 C-183.44000244140625,82.052001953125 -183.44000244140625,-82.052001953125 -183.44000244140625,-82.052001953125 C-183.44000244140625,-82.052001953125 183.44000244140625,-82.052001953125 183.44000244140625,-82.052001953125 C183.44000244140625,-82.052001953125 183.44000244140625,82.052001953125 183.44000244140625,82.052001953125z" />
				</g>
				<g opacity="1" transform="matrix(1,0,0,1,197.58200073242188,25.011999130249023)">
					<path fill="rgb(218,218,70)" fill-opacity="1"
						d=" M-183.44000244140625,15.03600025177002 C-183.44000244140625,15.03600025177002 183.44000244140625,15.03600025177002 183.44000244140625,15.03600025177002 C183.44000244140625,15.03600025177002 183.44000244140625,-15.03600025177002 183.44000244140625,-15.03600025177002 C183.44000244140625,-15.03600025177002 -183.44000244140625,-15.03600025177002 -183.44000244140625,-15.03600025177002 C-183.44000244140625,-15.03600025177002 -183.44000244140625,15.03600025177002 -183.44000244140625,15.03600025177002z" />
				</g>
				<g opacity="1" transform="matrix(1,0,0,1,191.16200256347656,161.1840057373047)">
					<path fill="rgb(218,218,70)" fill-opacity="1"
						d=" M-183.44000244140625,15.03600025177002 C-183.44000244140625,15.03600025177002 183.44000244140625,15.03600025177002 183.44000244140625,15.03600025177002 C183.44000244140625,15.03600025177002 183.44000244140625,-15.03600025177002 183.44000244140625,-15.03600025177002 C183.44000244140625,-15.03600025177002 -183.44000244140625,-15.03600025177002 -183.44000244140625,-15.03600025177002 C-183.44000244140625,-15.03600025177002 -183.44000244140625,15.03600025177002 -183.44000244140625,15.03600025177002z" />
				</g>
				<g opacity="1" transform="matrix(1,0,0,1,0,0)">
					<path fill="rgb(255,255,255)" fill-opacity="1"
						d=" M128.79299926757812,64.06099700927734 C128.79299926757812,64.06099700927734 266.37200927734375,64.06099700927734 266.37200927734375,64.06099700927734 C266.37200927734375,64.06099700927734 128.79299926757812,64.06099700927734 128.79299926757812,64.06099700927734z" />
				</g>
				<g opacity="1" transform="matrix(1,0,0,1,0,0)">
					<path stroke-linecap="round" stroke-linejoin="round" fill-opacity="0"
						stroke="rgb(218,218,70)" stroke-opacity="1" stroke-width="20"
						d=" M128.79200744628906,64.06199645996094 C128.79200744628906,64.06199645996094 266.37200927734375,64.06199645996094 266.37200927734375,64.06199645996094" />
				</g>
				<g opacity="1" transform="matrix(1,0,0,1,197.58200073242188,96.19400024414062)">
					<path stroke-linecap="round" stroke-linejoin="round" fill-opacity="0"
						stroke="rgb(255,255,255)" stroke-opacity="1" stroke-width="20"
						d=" M183.44000244140625,82.052001953125 C183.44000244140625,82.052001953125 -183.44000244140625,82.052001953125 -183.44000244140625,82.052001953125 C-183.44000244140625,82.052001953125 -183.44000244140625,-82.052001953125 -183.44000244140625,-82.052001953125 C-183.44000244140625,-82.052001953125 183.44000244140625,-82.052001953125 183.44000244140625,-82.052001953125 C183.44000244140625,-82.052001953125 183.44000244140625,82.052001953125 183.44000244140625,82.052001953125z" />
				</g>
				<g opacity="1" transform="matrix(1,0,0,1,0,0)">
					<path stroke-linecap="round" stroke-linejoin="round" fill-opacity="0"
						stroke="rgb(255,255,255)" stroke-opacity="1" stroke-width="20"
						d=" M128.79200744628906,54.23699951171875 C128.79200744628906,54.23699951171875 266.37200927734375,54.23699951171875 266.37200927734375,54.23699951171875" />
				</g>
				<g opacity="1" transform="matrix(1,0,0,1,0,0)">
					<path fill="rgb(255,255,255)" fill-opacity="1"
						d=" M128.79299926757812,228.98500061035156 C128.79299926757812,228.98500061035156 266.37200927734375,228.98500061035156 266.37200927734375,228.98500061035156 C266.37200927734375,228.98500061035156 128.79299926757812,228.98500061035156 128.79299926757812,228.98500061035156z" />
				</g>
				<g opacity="1" transform="matrix(1,0,0,1,0,0)">
					<path stroke-linecap="round" stroke-linejoin="round" fill-opacity="0"
						stroke="rgb(218,218,70)" stroke-opacity="1" stroke-width="20"
						d=" M128.79200744628906,228.98399353027344 C128.79200744628906,228.98399353027344 266.37200927734375,228.98399353027344 266.37200927734375,228.98399353027344" />
				</g>
				<g opacity="1" transform="matrix(1,0,0,1,0,0)">
					<path stroke-linecap="round" stroke-linejoin="round" fill-opacity="0"
						stroke="rgb(255,255,255)" stroke-opacity="1" stroke-width="20"
						d=" M128.79200744628906,217.98399353027344 C128.79200744628906,217.98399353027344 266.37200927734375,217.98399353027344 266.37200927734375,217.98399353027344" />
				</g>
				<g opacity="1" transform="matrix(1,0,0,1,97.60800170898438,368.1830139160156)">
					<path fill="rgb(255,255,255)" fill-opacity="1"
						d=" M16.510000228881836,24.075000762939453 C16.510000228881836,24.075000762939453 -49.52899932861328,24.075000762939453 -49.52899932861328,24.075000762939453 C-49.52899932861328,24.075000762939453 -49.52899932861328,-24.075000762939453 -49.52899932861328,-24.075000762939453 C-49.52899932861328,-24.075000762939453 49.52899932861328,-24.075000762939453 49.52899932861328,-24.075000762939453 C49.52899932861328,-24.075000762939453 16.510000228881836,24.075000762939453 16.510000228881836,24.075000762939453z" />
				</g>
				<g opacity="1" transform="matrix(1,0,0,1,284.71600341796875,373.45001220703125)">
					<path fill="rgb(255,255,255)" fill-opacity="1"
						d=" M-16.509000778198242,24.075000762939453 C-16.509000778198242,24.075000762939453 49.52899932861328,24.075000762939453 49.52899932861328,24.075000762939453 C49.52899932861328,24.075000762939453 49.52899932861328,-24.075000762939453 49.52899932861328,-24.075000762939453 C49.52899932861328,-24.075000762939453 -49.52899932861328,-24.075000762939453 -49.52899932861328,-24.075000762939453 C-49.52899932861328,-24.075000762939453 -16.509000778198242,24.075000762939453 -16.509000778198242,24.075000762939453z" />
				</g>
			</g>
			<g transform="matrix(1,0,0,1,1259.093017578125,563.0130004882812)" opacity="1"
				style="display: block;">
				<g opacity="1" transform="matrix(1,0,0,1,160.02200317382812,322.8659973144531)">
					<path fill="rgb(255,255,255)" fill-opacity="1"
						d=" M69.70700073242188,28.433000564575195 C69.70700073242188,28.433000564575195 -69.70700073242188,28.433000564575195 -69.70700073242188,28.433000564575195 C-69.70700073242188,28.433000564575195 -69.70700073242188,-28.433000564575195 -69.70700073242188,-28.433000564575195 C-69.70700073242188,-28.433000564575195 69.70700073242188,-28.433000564575195 69.70700073242188,-28.433000564575195 C69.70700073242188,-28.433000564575195 69.70700073242188,28.433000564575195 69.70700073242188,28.433000564575195z" />
				</g>
				<g opacity="1" transform="matrix(1,0,0,1,107.74099731445312,322.8659973144531)">
					<path fill="rgb(255,255,255)" fill-opacity="1"
						d=" M17.427000045776367,-28.433000564575195 C17.427000045776367,-28.433000564575195 -17.427000045776367,-28.433000564575195 -17.427000045776367,-28.433000564575195 C-17.427000045776367,-28.433000564575195 -17.427000045776367,28.433000564575195 -17.427000045776367,28.433000564575195 C-17.427000045776367,28.433000564575195 17.427000045776367,28.433000564575195 17.427000045776367,28.433000564575195 C17.427000045776367,28.433000564575195 17.427000045776367,-28.433000564575195 17.427000045776367,-28.433000564575195z" />
				</g>
				<g opacity="1" transform="matrix(1,0,0,1,160.02200317382812,322.8659973144531)">
					<path stroke-linecap="round" stroke-linejoin="round" fill-opacity="0"
						stroke="rgb(255,255,255)" stroke-opacity="1" stroke-width="20"
						d=" M69.70700073242188,28.433000564575195 C69.70700073242188,28.433000564575195 -69.70700073242188,28.433000564575195 -69.70700073242188,28.433000564575195 C-69.70700073242188,28.433000564575195 -69.70700073242188,-28.433000564575195 -69.70700073242188,-28.433000564575195 C-69.70700073242188,-28.433000564575195 69.70700073242188,-28.433000564575195 69.70700073242188,-28.433000564575195 C69.70700073242188,-28.433000564575195 69.70700073242188,28.433000564575195 69.70700073242188,28.433000564575195z" />
				</g>
				<g opacity="1" transform="matrix(1,0,0,1,0,0)">
					<path stroke-linecap="round" stroke-linejoin="round" fill-opacity="0"
						stroke="rgb(255,255,255)" stroke-opacity="1" stroke-width="20"
						d=" M155.43600463867188,178.86599731445312 C155.43600463867188,178.86599731445312 155.43600463867188,294.4330139160156 155.43600463867188,294.4330139160156" />
				</g>
				<g opacity="1" transform="matrix(1,0,0,1,155.43600463867188,114.43299865722656)">
					<path fill="rgb(255,255,101)" fill-opacity="1"
						d=" M65.26799774169922,-64.43299865722656 C65.26799774169922,-64.43299865722656 2.4179999828338623,-64.43299865722656 2.4179999828338623,-64.43299865722656 C2.4179999828338623,-64.43299865722656 -2.4179999828338623,-64.43299865722656 -2.4179999828338623,-64.43299865722656 C-2.4179999828338623,-64.43299865722656 -65.26799774169922,-64.43299865722656 -65.26799774169922,-64.43299865722656 C-65.26799774169922,-64.43299865722656 -105.43599700927734,64.43299865722656 -105.43599700927734,64.43299865722656 C-105.43599700927734,64.43299865722656 -2.4179999828338623,64.43299865722656 -2.4179999828338623,64.43299865722656 C-2.4179999828338623,64.43299865722656 2.4179999828338623,64.43299865722656 2.4179999828338623,64.43299865722656 C2.4179999828338623,64.43299865722656 105.43599700927734,64.43299865722656 105.43599700927734,64.43299865722656 C105.43599700927734,64.43299865722656 65.26799774169922,-64.43299865722656 65.26799774169922,-64.43299865722656z" />
				</g>
				<g opacity="1" transform="matrix(1,0,0,1,100.48300170898438,114.43299865722656)">
					<path fill="rgb(218,218,70)" fill-opacity="1"
						d=" M50.48400115966797,-64.43299865722656 C50.48400115966797,-64.43299865722656 -10.315999984741211,-64.43299865722656 -10.315999984741211,-64.43299865722656 C-10.315999984741211,-64.43299865722656 -50.48400115966797,64.43299865722656 -50.48400115966797,64.43299865722656 C-50.48400115966797,64.43299865722656 28.53499984741211,64.43299865722656 28.53499984741211,64.43299865722656 C28.53499984741211,64.43299865722656 50.48400115966797,-64.43299865722656 50.48400115966797,-64.43299865722656z" />
				</g>
				<g opacity="1" transform="matrix(1,0,0,1,155.43600463867188,114.43299865722656)">
					<path stroke-linecap="round" stroke-linejoin="round" fill-opacity="0"
						stroke="rgb(255,255,255)" stroke-opacity="1" stroke-width="20"
						d=" M65.26799774169922,-64.43299865722656 C65.26799774169922,-64.43299865722656 2.4179999828338623,-64.43299865722656 2.4179999828338623,-64.43299865722656 C2.4179999828338623,-64.43299865722656 -2.4179999828338623,-64.43299865722656 -2.4179999828338623,-64.43299865722656 C-2.4179999828338623,-64.43299865722656 -65.26799774169922,-64.43299865722656 -65.26799774169922,-64.43299865722656 C-65.26799774169922,-64.43299865722656 -105.43599700927734,64.43299865722656 -105.43599700927734,64.43299865722656 C-105.43599700927734,64.43299865722656 -2.4179999828338623,64.43299865722656 -2.4179999828338623,64.43299865722656 C-2.4179999828338623,64.43299865722656 2.4179999828338623,64.43299865722656 2.4179999828338623,64.43299865722656 C2.4179999828338623,64.43299865722656 105.43599700927734,64.43299865722656 105.43599700927734,64.43299865722656 C105.43599700927734,64.43299865722656 65.26799774169922,-64.43299865722656 65.26799774169922,-64.43299865722656z" />
				</g>
				<g opacity="1" transform="matrix(1,0,0,1,0,0)">
					<path stroke-linecap="round" stroke-linejoin="round" fill-opacity="0"
						stroke="rgb(255,255,255)" stroke-opacity="1" stroke-width="7"
						d=" M222.39100646972656,178.86599731445312 C222.39100646972656,178.86599731445312 222.39100646972656,226.55999755859375 222.39100646972656,226.55999755859375" />
				</g>
				<g opacity="1" transform="matrix(1,0,0,1,222.39100646972656,233.66900634765625)">
					<path fill="rgb(255,255,255)" fill-opacity="1"
						d=" M11.236000061035156,0 C11.236000061035156,6.204999923706055 6.204999923706055,11.236000061035156 -0.0010000000474974513,11.236000061035156 C-6.205999851226807,11.236000061035156 -11.236000061035156,6.204999923706055 -11.236000061035156,0 C-11.236000061035156,-6.204999923706055 -6.205999851226807,-11.236000061035156 -0.0010000000474974513,-11.236000061035156 C6.204999923706055,-11.236000061035156 11.236000061035156,-6.204999923706055 11.236000061035156,0z" />
				</g>
				<g opacity="1" transform="matrix(1,0,0,1,938.7219848632812,160.656005859375)">
					<path fill="rgb(255,255,255)" fill-opacity="1"
						d=" M162.17300415039062,16.680999755859375 C162.17300415039062,16.680999755859375 -162.17100524902344,16.680999755859375 -162.17100524902344,16.680999755859375 C-171.38400268554688,16.680999755859375 -178.85299682617188,9.213000297546387 -178.85299682617188,0.0010000000474974513 C-178.85299682617188,-9.211999893188477 -171.38400268554688,-16.680999755859375 -162.17100524902344,-16.680999755859375 C-162.17100524902344,-16.680999755859375 162.17300415039062,-16.680999755859375 162.17300415039062,-16.680999755859375 C171.38600158691406,-16.680999755859375 178.85299682617188,-9.211999893188477 178.85299682617188,0.0010000000474974513 C178.85299682617188,9.213000297546387 171.38600158691406,16.680999755859375 162.17300415039062,16.680999755859375z" />
					<path stroke-linecap="round" stroke-linejoin="round" fill-opacity="0"
						stroke="rgb(255,255,255)" stroke-opacity="1" stroke-width="20"
						d=" M162.17300415039062,16.680999755859375 C162.17300415039062,16.680999755859375 -162.17100524902344,16.680999755859375 -162.17100524902344,16.680999755859375 C-171.38400268554688,16.680999755859375 -178.85299682617188,9.213000297546387 -178.85299682617188,0.0010000000474974513 C-178.85299682617188,-9.211999893188477 -171.38400268554688,-16.680999755859375 -162.17100524902344,-16.680999755859375 C-162.17100524902344,-16.680999755859375 162.17300415039062,-16.680999755859375 162.17300415039062,-16.680999755859375 C171.38600158691406,-16.680999755859375 178.85299682617188,-9.211999893188477 178.85299682617188,0.0010000000474974513 C178.85299682617188,9.213000297546387 171.38600158691406,16.680999755859375 162.17300415039062,16.680999755859375z" />
				</g>
			</g>
			<g transform="matrix(1,0,0,1,2060.10009765625,504.083984375)" opacity="1"
				style="display: block;">
				<g opacity="1" transform="matrix(1,0,0,1,212.07000732421875,105.92900085449219)">
					<path fill="rgb(218,218,70)" fill-opacity="1"
						d=" M65.97599792480469,91.78600311279297 C65.97599792480469,91.78600311279297 -65.97599792480469,91.78600311279297 -65.97599792480469,91.78600311279297 C-65.97599792480469,91.78600311279297 -65.97599792480469,-91.78600311279297 -65.97599792480469,-91.78600311279297 C-65.97599792480469,-91.78600311279297 65.97599792480469,-91.78600311279297 65.97599792480469,-91.78600311279297 C65.97599792480469,-91.78600311279297 65.97599792480469,91.78600311279297 65.97599792480469,91.78600311279297z" />
				</g>
				<g opacity="1" transform="matrix(1,0,0,1,212.07000732421875,131.0449981689453)">
					<path fill="rgb(218,218,70)" fill-opacity="1"
						d=" M65.97599792480469,-66.6709976196289 C65.97599792480469,-66.6709976196289 -65.97599792480469,35.9119987487793 -65.97599792480469,35.9119987487793 C-65.97599792480469,35.9119987487793 -65.97599792480469,66.6709976196289 -65.97599792480469,66.6709976196289 C-65.97599792480469,66.6709976196289 -44.04600143432617,66.6709976196289 -44.04600143432617,66.6709976196289 C-11.982999801635742,40.75899887084961 29.715999603271484,7.388999938964844 65.97599792480469,-21.552000045776367 C65.97599792480469,-21.552000045776367 65.97599792480469,-66.6709976196289 65.97599792480469,-66.6709976196289z" />
				</g>
				<g opacity="1" transform="matrix(1,0,0,1,212.07000732421875,84.63800048828125)">
					<path fill="rgb(218,218,70)" fill-opacity="1"
						d=" M-65.97599792480469,57.97800064086914 C-29.565000534057617,31.531999588012695 25.413000106811523,-9.239999771118164 65.97599792480469,-39.702999114990234 C65.97599792480469,-39.702999114990234 65.97599792480469,-57.97800064086914 65.97599792480469,-57.97800064086914 C65.97599792480469,-57.97800064086914 -65.97599792480469,38.422000885009766 -65.97599792480469,38.422000885009766 C-65.97599792480469,38.422000885009766 -65.97599792480469,57.97800064086914 -65.97599792480469,57.97800064086914z" />
				</g>
				<g opacity="1" transform="matrix(1,0,0,1,212.07000732421875,105.92900085449219)">
					<path stroke-linecap="round" stroke-linejoin="round" fill-opacity="0"
						stroke="rgb(255,255,255)" stroke-opacity="1" stroke-width="20"
						d=" M65.97599792480469,91.78600311279297 C65.97599792480469,91.78600311279297 -65.97599792480469,91.78600311279297 -65.97599792480469,91.78600311279297 C-65.97599792480469,91.78600311279297 -65.97599792480469,-91.78600311279297 -65.97599792480469,-91.78600311279297 C-65.97599792480469,-91.78600311279297 65.97599792480469,-91.78600311279297 65.97599792480469,-91.78600311279297 C65.97599792480469,-91.78600311279297 65.97599792480469,91.78600311279297 65.97599792480469,91.78600311279297z" />
				</g>
				<g opacity="1" transform="matrix(1,0,0,1,80.11799621582031,133.42599487304688)">
					<path fill="rgb(218,218,70)" fill-opacity="1"
						d=" M65.97599792480469,66.47799682617188 C65.97599792480469,66.47799682617188 -65.97599792480469,66.47799682617188 -65.97599792480469,66.47799682617188 C-65.97599792480469,66.47799682617188 -65.97599792480469,-66.47799682617188 -65.97599792480469,-66.47799682617188 C-65.97599792480469,-66.47799682617188 65.97599792480469,-66.47799682617188 65.97599792480469,-66.47799682617188 C65.97599792480469,-66.47799682617188 65.97599792480469,66.47799682617188 65.97599792480469,66.47799682617188z" />
				</g>
				<g opacity="1" transform="matrix(1,0,0,1,80.11799621582031,138.26100158691406)">
					<path fill="rgb(218,218,70)" fill-opacity="1"
						d=" M60.01499938964844,-53.62300109863281 C60.01499938964844,-53.62300109863281 -60.01499938964844,34.066001892089844 -60.01499938964844,34.066001892089844 C-60.01499938964844,34.066001892089844 -60.01499938964844,53.62300109863281 -60.01499938964844,53.62300109863281 C-27.062999725341797,29.690000534057617 21.09600067138672,-5.978000164031982 60.01499938964844,-35.11800003051758 C60.01499938964844,-35.11800003051758 60.01499938964844,-53.62300109863281 60.01499938964844,-53.62300109863281z" />
				</g>
				<g opacity="1" transform="matrix(1,0,0,1,99.90799713134766,165.3820037841797)">
					<path fill="rgb(218,218,70)" fill-opacity="1"
						d=" M46.18600082397461,-34.52199935913086 C46.18600082397461,-34.52199935913086 -46.18600082397461,34.52199935913086 -46.18600082397461,34.52199935913086 C-46.18600082397461,34.52199935913086 -30.416000366210938,34.52199935913086 -30.416000366210938,34.52199935913086 C-6.144999980926514,16.680999755859375 21.268999099731445,-3.6489999294281006 46.18600082397461,-22.2549991607666 C46.18600082397461,-22.2549991607666 46.18600082397461,-34.52199935913086 46.18600082397461,-34.52199935913086z" />
				</g>
				<g opacity="1" transform="matrix(1,0,0,1,80.11799621582031,133.42599487304688)">
					<path stroke-linecap="round" stroke-linejoin="round" fill-opacity="0"
						stroke="rgb(255,255,255)" stroke-opacity="1" stroke-width="20"
						d=" M65.97599792480469,66.47799682617188 C65.97599792480469,66.47799682617188 -65.97599792480469,66.47799682617188 -65.97599792480469,66.47799682617188 C-65.97599792480469,66.47799682617188 -65.97599792480469,-66.47799682617188 -65.97599792480469,-66.47799682617188 C-65.97599792480469,-66.47799682617188 65.97599792480469,-66.47799682617188 65.97599792480469,-66.47799682617188 C65.97599792480469,-66.47799682617188 65.97599792480469,66.47799682617188 65.97599792480469,66.47799682617188z" />
				</g>
			</g>
			<g transform="matrix(1,0,0,1,1028.08203125,1286.0379638671875)" opacity="1"
				style="display: block;">
				<g opacity="1" transform="matrix(1,0,0,1,0,0)">
					<path stroke-linecap="round" stroke-linejoin="round" fill-opacity="0"
						stroke="rgb(255,255,255)" stroke-opacity="1" stroke-width="20"
						d=" M10,10 C10,10 1645.427001953125,10 1645.427001953125,10" />
					<path stroke-linecap="round" stroke-linejoin="round" fill-opacity="0"
						stroke="rgb(255,255,255)" stroke-opacity="1" stroke-width="20"
						d=" M10,10 C10,10 1645.427001953125,10 1645.427001953125,10" />
				</g>
			</g>
		</g>
	</g>
</svg>