<?xml version="1.0" encoding="UTF-8"?>
<svg xmlns="http://www.w3.org/2000/svg" version="1.1" viewBox="0.00 0.00 250.00 190.00">
  <path fill="#fff"
    d="
  M 226.68 106.66
  Q 226.86 108.29 227.34 109.79
  C 230.39 119.40 221.49 118.66 215.88 121.17
  Q 215.44 121.36 215.46 121.84
  L 216.15 141.88
  A 1.43 1.41 75.5 0 1 215.39 143.19
  L 197.79 152.45
  A 1.23 1.23 0.0 0 1 196.91 152.55
  L 166.98 145.15
  A 0.75 0.74 24.6 0 0 166.21 145.43
  L 162.13 150.86
  A 0.44 0.44 0.0 0 1 161.44 150.87
  L 156.34 144.36
  Q 155.97 143.89 155.37 143.94
  L 146.00 144.65
  Q 145.16 144.72 144.68 145.41
  L 128.85 168.12
  A 2.37 2.36 22.0 0 1 126.53 169.10
  Q 120.06 168.04 113.80 168.34
  C 94.81 169.25 78.68 173.77 64.41 186.92
  C 62.96 188.26 62.27 188.29 60.38 187.94
  Q 59.83 187.84 59.48 187.41
  L 57.83 185.44
  Q 57.51 185.05 57.00 185.01
  Q 54.70 184.86 52.90 183.54
  Q 52.51 183.25 52.35 182.79
  Q 51.57 180.56 50.41 178.51
  A 1.01 1.00 75.0 0 0 49.54 178.00
  L 41.89 178.00
  Q 41.33 178.00 41.03 177.54
  L 35.54 169.20
  A 0.86 0.85 -25.3 0 1 36.00 167.92
  C 39.70 166.75 43.31 161.69 39.23 158.50
  Q 37.56 157.19 36.57 156.22
  Q 36.16 155.81 36.38 155.28
  L 38.57 150.02
  A 0.56 0.55 6.0 0 0 37.95 149.26
  L 0.81 156.28
  Q 0.25 156.38 0.25 155.81
  L 0.25 152.83
  Q 0.25 152.27 0.80 152.15
  Q 20.46 147.77 35.25 145.51
  Q 37.27 145.20 38.56 144.84
  A 0.82 0.82 0.0 0 0 39.14 144.20
  Q 40.07 138.93 40.02 133.58
  Q 40.01 132.86 40.71 133.01
  Q 42.02 133.29 42.70 132.25
  Q 43.01 131.77 42.59 131.37
  Q 34.93 124.09 28.78 115.59
  C 26.63 112.62 26.53 109.93 26.71 106.49
  Q 26.73 105.97 27.10 105.60
  Q 31.33 101.32 34.98 96.61
  C 37.71 93.08 37.77 88.66 37.95 84.41
  A 0.80 0.79 82.2 0 1 38.50 83.68
  L 43.66 81.97
  A 0.60 0.59 77.6 0 0 44.06 81.33
  Q 43.17 74.93 48.58 71.44
  A 0.84 0.84 0.0 0 0 48.64 70.07
  L 45.55 67.69
  Q 45.14 67.37 44.98 66.88
  Q 43.92 63.68 42.97 60.45
  A 1.16 1.15 -89.1 0 0 42.22 59.67
  L 36.47 57.73
  Q 35.85 57.53 35.92 56.88
  L 36.32 53.38
  Q 36.37 52.98 35.96 52.99
  C 31.25 53.11 25.81 52.77 28.38 45.96
  Q 28.56 45.47 28.14 45.17
  L 20.71 39.77
  A 1.92 1.91 24.4 0 1 19.97 37.81
  C 20.75 34.40 17.62 33.33 15.83 31.28
  C 13.80 28.94 13.51 26.09 16.15 24.12
  Q 21.58 20.08 28.28 21.16
  C 35.74 22.37 36.59 10.50 46.03 12.75
  A 0.64 0.64 0.0 0 0 46.78 12.32
  C 48.67 6.56 53.43 6.41 56.11 1.35
  A 1.12 1.12 0.0 0 1 58.00 1.19
  L 62.46 7.11
  Q 62.75 7.50 63.24 7.50
  Q 70.13 7.51 76.96 7.50
  C 85.85 7.49 94.50 5.41 103.25 3.95
  Q 106.30 3.44 109.35 3.97
  C 118.47 5.53 128.07 7.94 137.32 7.98
  C 141.75 8.00 146.68 7.40 150.57 9.25
  C 159.57 13.54 161.01 25.20 160.05 33.93
  Q 159.92 35.10 161.06 35.41
  L 193.39 44.06
  Q 193.96 44.21 193.98 44.81
  C 194.07 49.03 193.51 53.09 194.88 57.16
  Q 196.57 62.17 198.50 67.09
  A 1.00 0.99 84.7 0 0 199.21 67.69
  C 203.05 68.53 206.81 68.69 210.15 70.91
  C 214.68 73.94 218.09 76.60 223.36 78.30
  Q 223.84 78.46 223.89 78.95
  L 225.98 101.37
  Q 226.04 101.99 226.66 101.98
  Q 239.44 101.89 252.17 103.12
  Q 252.55 103.16 252.51 103.54
  L 252.18 106.15
  A 1.11 1.11 0.0 0 1 251.03 107.13
  L 227.17 106.14
  Q 226.62 106.11 226.68 106.66
  Z
  M 71.00 79.25
  L 71.00 77.75
  Q 71.00 77.00 71.75 77.00
  L 72.89 77.00
  A 0.49 0.49 0.0 0 0 73.37 76.42
  L 73.24 75.69
  Q 73.10 75.00 73.81 75.00
  L 75.35 75.00
  A 0.63 0.63 0.0 0 1 75.98 75.61
  L 76.03 76.98
  A 0.47 0.46 -24.1 0 0 76.83 77.28
  Q 77.30 76.80 77.69 77.08
  Q 78.06 77.35 78.05 77.81
  L 77.98 79.75
  A 0.36 0.36 0.0 0 1 77.36 79.98
  Q 76.98 79.56 76.48 79.86
  Q 75.97 80.15 75.99 80.74
  L 76.03 82.09
  A 0.92 0.92 0.0 0 0 76.54 82.90
  C 79.47 84.42 81.82 88.82 78.53 91.06
  A 0.64 0.64 0.0 0 0 78.54 92.13
  L 86.66 97.32
  Q 87.10 97.61 87.09 98.13
  Q 86.95 104.71 87.00 111.30
  C 87.01 112.88 87.72 113.55 88.86 114.44
  A 1.03 1.01 19.6 0 1 89.25 115.24
  L 89.25 140.25
  Q 89.25 140.78 89.77 140.75
  C 102.42 140.19 112.89 125.44 118.47 115.42
  Q 119.51 113.56 119.51 111.30
  Q 119.51 92.92 119.49 74.46
  A 1.30 1.25 -22.9 0 1 119.88 73.55
  Q 122.49 71.02 122.95 69.20
  Q 125.06 60.90 127.40 52.65
  Q 127.58 52.00 126.91 52.00
  L 125.70 52.00
  Q 124.88 52.00 124.97 51.19
  L 125.14 49.67
  Q 125.19 49.21 125.62 49.38
  Q 126.55 49.73 127.20 49.35
  Q 127.61 49.12 127.49 48.66
  L 127.24 47.67
  Q 127.03 46.87 127.84 46.77
  L 129.40 46.57
  A 0.53 0.53 0.0 0 1 130.00 47.09
  L 130.00 49.12
  Q 130.00 49.99 130.78 49.61
  L 131.14 49.44
  Q 131.85 49.10 131.98 49.88
  Q 132.01 50.09 132.06 50.30
  Q 132.23 50.98 131.94 51.61
  Q 131.66 52.23 130.85 51.89
  A 1.16 1.16 0.0 0 0 129.29 53.34
  L 135.08 70.11
  Q 135.25 70.60 135.74 70.79
  L 137.49 71.46
  Q 138.01 71.66 138.02 72.22
  L 138.68 107.90
  A 0.47 0.46 -3.9 0 0 139.20 108.35
  L 157.93 105.83
  A 1.28 1.27 -88.7 0 0 159.02 104.78
  C 160.07 98.68 160.88 92.55 162.62 86.63
  Q 166.16 74.52 169.86 62.44
  A 1.18 1.15 38.0 0 0 169.73 61.47
  Q 168.94 60.17 168.97 58.62
  Q 168.98 58.00 169.60 58.00
  L 170.37 58.00
  Q 171.00 58.00 171.00 57.37
  L 171.00 55.64
  Q 171.00 55.04 170.39 55.02
  L 169.15 54.97
  A 0.72 0.71 -82.4 0 1 168.48 54.09
  L 168.82 52.60
  Q 168.95 52.08 169.47 52.20
  L 170.35 52.39
  Q 170.77 52.49 170.86 52.06
  Q 171.05 51.10 171.93 50.88
  A 0.94 0.93 65.1 0 1 172.91 51.24
  Q 173.75 52.41 175.18 52.24
  A 1.51 1.27 -47.2 0 1 175.05 55.03
  Q 174.78 55.06 173.94 54.94
  Q 173.25 54.85 173.25 55.54
  L 173.25 56.63
  Q 173.25 57.25 173.88 57.25
  L 175.10 57.25
  Q 175.51 57.25 175.59 57.64
  Q 180.20 78.02 184.82 98.39
  C 185.11 99.65 184.80 101.39 185.12 102.77
  A 0.67 0.67 0.0 0 0 185.82 103.27
  Q 204.30 101.88 222.82 101.96
  Q 223.31 101.96 223.27 101.48
  L 221.65 81.15
  Q 221.60 80.52 221.03 80.28
  C 215.87 78.05 212.19 75.18 207.48 72.38
  C 204.54 70.63 200.57 70.67 197.18 69.71
  Q 196.67 69.57 196.48 69.07
  Q 194.12 62.87 191.99 56.59
  C 190.89 53.32 191.18 50.23 191.40 46.92
  Q 191.45 46.20 190.75 46.01
  L 158.00 37.22
  A 0.80 0.79 12.6 0 1 157.42 36.31
  C 159.13 26.74 157.18 10.02 143.67 10.52
  Q 137.75 10.73 137.65 10.73
  C 128.01 10.15 118.06 8.27 108.69 6.50
  Q 105.95 5.99 103.33 6.46
  C 95.08 7.96 86.94 9.92 78.56 9.99
  Q 70.35 10.05 62.13 9.98
  Q 61.60 9.98 61.26 9.56
  L 57.57 5.04
  A 0.53 0.53 0.0 0 0 56.70 5.10
  Q 54.89 8.09 51.57 9.29
  Q 51.06 9.48 50.76 9.94
  C 49.36 12.12 49.87 15.59 46.25 14.99
  Q 44.59 14.71 41.94 15.17
  Q 41.35 15.27 40.92 15.68
  L 33.22 23.09
  A 3.42 3.42 0.0 0 1 30.72 24.03
  C 26.24 23.84 21.74 23.57 17.79 26.15
  A 1.93 1.92 -39.5 0 0 17.50 29.14
  C 20.22 31.80 23.22 33.00 22.74 37.48
  Q 22.67 38.11 23.18 38.47
  L 30.53 43.63
  Q 31.04 43.99 31.03 44.61
  L 30.93 49.58
  A 0.70 0.70 0.0 0 0 31.65 50.29
  L 38.83 50.14
  Q 39.27 50.13 39.24 50.57
  L 38.85 55.31
  Q 38.81 55.83 39.30 55.99
  L 44.15 57.64
  Q 44.76 57.84 44.96 58.46
  L 47.25 65.37
  Q 47.42 65.90 47.86 66.26
  L 52.49 70.07
  A 0.53 0.53 0.0 0 1 52.53 70.85
  L 47.50 75.88
  Q 47.16 76.21 47.12 76.68
  L 46.53 83.15
  A 0.80 0.79 81.9 0 1 46.05 83.80
  C 43.55 84.82 39.30 84.76 40.01 88.50
  C 40.48 91.00 40.26 93.58 38.68 95.83
  Q 34.87 101.26 30.30 106.10
  C 28.68 107.82 28.89 110.85 30.08 112.77
  C 34.89 120.57 41.60 126.75 47.64 133.33
  Q 47.94 133.65 47.52 133.78
  L 43.09 135.09
  Q 42.47 135.27 42.42 135.92
  L 41.91 143.62
  Q 41.86 144.33 42.57 144.23
  L 58.50 141.86
  A 0.55 0.54 85.7 0 0 58.96 141.32
  Q 59.02 130.66 59.30 120.01
  C 59.39 116.52 60.62 113.62 60.57 110.51
  Q 60.48 104.57 60.41 98.48
  Q 60.41 97.99 60.82 97.73
  L 69.76 92.08
  Q 70.19 91.81 69.93 91.38
  Q 66.29 85.30 72.77 82.52
  A 1.46 1.16 -61.0 0 0 72.33 79.92
  Q 71.83 80.11 71.56 79.93
  Q 71.00 79.56 71.00 79.25
  Z
  M 133.24 72.38
  Q 131.28 66.66 129.19 60.99
  Q 129.00 60.50 129.03 59.98
  Q 129.04 59.58 128.88 59.25
  A 0.37 0.37 0.0 0 0 128.19 59.32
  C 126.90 63.85 126.18 71.23 122.37 74.25
  A 0.99 0.96 71.4 0 0 122.00 75.02
  L 122.00 110.93
  A 0.77 0.77 0.0 0 0 122.92 111.68
  L 134.55 109.31
  A 1.91 1.91 0.0 0 0 136.08 107.43
  L 135.92 74.29
  Q 135.92 73.62 135.28 73.39
  L 133.65 72.80
  A 0.70 0.68 89.6 0 1 133.24 72.38
  Z
  M 172.68 59.94
  A 0.72 0.72 0.0 0 0 171.99 60.88
  Q 172.46 62.40 171.99 64.00
  C 168.30 76.38 163.66 88.98 162.15 101.90
  A 1.00 0.99 3.3 0 0 163.14 103.01
  L 181.80 102.99
  A 0.73 0.73 0.0 0 0 182.51 102.07
  C 181.95 99.91 182.08 97.62 181.63 95.65
  Q 178.06 79.85 174.44 64.06
  C 174.09 62.54 174.26 59.93 172.68 59.94
  Z
  M 75.9649 85.3013
  A 2.06 2.06 0.0 0 0 73.0614 85.0626
  L 71.7801 86.1492
  A 2.06 2.06 0.0 0 0 71.5414 89.0527
  L 72.6151 90.3187
  A 2.06 2.06 0.0 0 0 75.5186 90.5574
  L 76.7999 89.4708
  A 2.06 2.06 0.0 0 0 77.0386 86.5673
  L 75.9649 85.3013
  Z
  M 85.54 114.95
  A 1.09 1.08 -82.8 0 1 84.73 113.90
  L 84.79 99.74
  Q 84.80 99.19 84.34 98.89
  L 74.71 92.55
  A 0.86 0.85 45.3 0 0 73.79 92.54
  L 63.43 99.05
  Q 63.00 99.31 63.00 99.82
  L 63.00 114.22
  A 1.53 1.50 -29.7 0 1 62.77 115.02
  C 62.48 115.47 62.20 115.97 62.19 116.52
  Q 61.94 128.49 61.46 140.56
  A 0.54 0.54 0.0 0 0 62.00 141.12
  C 65.86 141.13 69.86 140.01 73.20 139.98
  Q 79.81 139.91 86.47 140.22
  Q 86.98 140.24 86.98 139.73
  Q 87.04 128.28 86.98 116.91
  C 86.97 116.03 86.35 115.16 85.54 114.95
  Z
  M 165.90 142.30
  L 196.61 149.69
  Q 197.07 149.81 197.49 149.59
  L 212.59 141.81
  Q 213.26 141.46 213.25 140.70
  L 212.90 119.83
  Q 212.89 119.26 213.44 119.08
  L 224.29 115.64
  Q 224.77 115.49 224.85 115.00
  Q 225.61 110.62 223.75 106.68
  A 0.77 0.75 76.7 0 0 223.07 106.25
  C 189.99 106.24 156.03 108.63 123.75 115.89
  A 2.20 2.17 7.5 0 0 122.29 117.00
  C 116.23 128.49 103.47 145.96 88.45 144.85
  C 73.26 143.74 57.97 146.10 43.03 148.45
  A 2.34 2.33 -84.5 0 0 41.18 149.98
  L 39.61 154.36
  Q 39.47 154.75 39.74 155.07
  C 43.05 158.88 45.71 162.81 41.22 167.24
  Q 40.19 168.25 39.26 169.40
  A 0.78 0.78 0.0 0 0 39.21 170.34
  L 42.47 175.22
  A 1.12 1.11 -16.7 0 0 43.40 175.72
  L 51.59 175.76
  A 0.85 0.84 78.5 0 1 52.35 176.27
  L 54.54 181.33
  Q 54.77 181.88 55.37 181.94
  Q 58.57 182.29 60.50 184.78
  A 1.64 1.63 -41.1 0 0 62.93 184.94
  Q 73.46 174.63 88.03 170.08
  C 101.50 165.88 111.54 165.69 126.52 166.13
  Q 127.09 166.15 127.42 165.68
  L 143.06 143.27
  Q 143.81 142.21 145.11 142.14
  L 157.20 141.54
  A 0.45 0.44 -20.0 0 1 157.57 141.71
  L 161.32 146.62
  Q 161.64 147.04 162.00 146.65
  Q 163.75 144.72 165.24 142.55
  A 0.64 0.62 -65.2 0 1 165.90 142.30
  Z"
  />
</svg>